# xmcd
#
# Track frame offsets: 
#        150
#        14228
#        34505
#        53243
#        69737
#        91787
#        110429
#        126833
#        144356
#        164335
#        182403
#        201181
#
# Disc length: 2929 seconds
#
# Revision: 0
# Processed by: cddbd v1.4PL0 Copyright (c) Steve Scherf et al.
# Submitted via: ExactAudioCopy v0.90b4
#
DISCID=a30b6f0c
DTITLE=Notodden Blues Band and Torild Sivertsen - Soul Food
DYEAR=2003
DGENRE=Blues
TTITLE0=Island
TTITLE1=Mr. Bad Luck
TTITLE2=I'm Gonna Tear Your Playhouse Down
TTITLE3=Cheap Wine
TTITLE4=Turn To Rain
TTITLE5=Good To Be Back
TTITLE6=Raging Waters
TTITLE7=Footprints
TTITLE8=I'm Down
TTITLE9=Honey From The Jar
TTITLE10=UPS Blues
TTITLE11=All Over Again
EXTD=
EXTT0=
EXTT1=
EXTT2=
EXTT3=
EXTT4=
EXTT5=
EXTT6=
EXTT7=
EXTT8=
EXTT9=
EXTT10=
EXTT11=
PLAYORDER=
